<?xml version="1.0" encoding="utf-8"?>
<!-- Generator: Adobe Illustrator 21.1.0, SVG Export Plug-In . SVG Version: 6.00 Build 0)  -->
<svg version="1.1" id="Layer_1" xmlns="http://www.w3.org/2000/svg" xmlns:xlink="http://www.w3.org/1999/xlink" x="0px" y="0px"
	 viewBox="0 0 792 612" style="enable-background:new 0 0 792 612;" xml:space="preserve">
<path d="M729.7,121.6c-9-12.7-18,0-18,0l-2.6,19c0,0-8.5,14.8-11.6,19c-3.2,4.2-11.6-3.2-11.6-3.2s-2.6-30.2-13.8-41.8
	c-11.1-11.6-18,4.8-18,4.8l7.9,25.4l-7.4,16.9c0,0-29.6-18.5-44.4-22.2c-14.8-3.7-9.5,15.3-9.5,15.3l48.1,29.1l5.3,27l-20.2,10.4
	l-44.2,8.1c-8-9-17.9-17.7-29.7-29.6c-33.8-33.9-77.3-78.3-131-78.3c-51.1,0-87.6,44.4-119.8,72.5c-15.1,13.1-27.6,24.3-37.7,35.7
	l0.1-0.3l-44.2-8.1L206.9,211l5.3-27l48.1-29.1c0,0,5.3-19-9.5-15.3c-14.8,3.7-44.4,22.2-44.4,22.2l-7.4-16.9l7.9-25.4
	c0,0-6.9-16.4-18-4.8s-13.8,41.8-13.8,41.8s-8.5,7.4-11.6,3.2c-3.2-4.2-11.6-19-11.6-19l-2.6-19c0,0-9-12.7-18,0
	c-9,12.7,4.2,48.4,4.2,48.4l15.3,28.8c0,0-10.6,56.4,4.2,60.6c12.8,3.7,74.7,9.1,91.1,10.5c-2.8,7.1-5.1,14.8-7,23.4
	c-9.3,41.8-10.5,106,15.9,135.7c33.9,38.2,116.4,36,173.8,36c59.1,0,133.6-1.2,167.5-41.3c24.6-29.2,23-96.4,17.7-136
	c-0.9-6.5-2-12.3-3.2-17.5l0,0c0,0,80.2-6.6,95.1-10.8s4.2-60.6,4.2-60.6l15.3-28.8C725.4,170.1,738.6,134.3,729.7,121.6z
	 M430.5,147.2c42.8,0,77.5,9.1,77.5,20.4c0,1.4-0.5,2.7-1.5,4c-7-9.4-38.4-16.4-76-16.4s-69,7.1-76,16.4c-1-1.3-1.5-2.6-1.5-4
	C353,156.3,387.7,147.2,430.5,147.2z M391.8,283.9c1.3,4,5.6,7.5,11.7,9.9c-1.2-1.5-1.8-3.2-1.5-5c0.8-3.7,5.5-5.9,10.7-4.8
	c5.2,1,8.7,4.9,8,8.6c-0.4,2-2,3.6-4.2,4.4c2.8,0.4,5.7,0.6,8.7,0.6c3.7,0,7.3-0.3,10.6-0.8c-1.9-0.9-3.2-2.3-3.6-4.1
	c-0.8-3.7,2.8-7.6,8-8.6c5.2-1,9.9,1.1,10.7,4.8c0.2,1.1,0.1,2.2-0.4,3.3c4.2-2.3,7.1-5.1,8.1-8.2c0.3,0.9,0.5,1.8,0.5,2.7
	c0,9.1-15.2,16.4-33.9,16.4s-33.9-7.3-33.9-16.4C391.3,285.6,391.5,284.7,391.8,283.9z M386.8,275.6c-21.2,0-38.4-17.2-38.4-38.4
	s17.2-38.4,38.4-38.4c21.2,0,38.4,17.2,38.4,38.4S408,275.6,386.8,275.6z M425.2,239.9c0-21.2,17.2-38.4,38.4-38.4
	s38.4,17.2,38.4,38.4s-17.2,38.4-38.4,38.4S425.2,261.1,425.2,239.9z M465.6,191.8c-18.7,5.6-32.6,16.1-34.1,25
	c-0.9-1-1.6-2.1-2-3.4c-2.9-9.5,12.3-22.5,33.8-29c21.6-6.5,41.4-4,44.2,5.5c0.4,1.3,0.4,2.6,0.2,3.9
	C501.7,187.3,484.3,186.2,465.6,191.8z M346.8,190c2.9-9.5,22.7-12,44.2-5.5c21.6,6.5,36.7,19.5,33.8,29c-0.4,1.3-1.1,2.4-2,3.4
	c-1.5-8.9-15.4-19.4-34.1-25c-18.7-5.6-36.1-4.5-42.2,2.1C346.4,192.6,346.4,191.2,346.8,190z M317.8,291.1
	c-10.6,6-11.9,49.5-11.9,65.7c0,12.9-0.1,35.4,4.2,52.2l-2.3,4.7c-0.8,1.7-1.2,3.5-1.2,5.3c-7.7-16.5-7.6-46.4-7.6-62.1
	c0-16.2,1.4-59.7,11.9-65.7c2.9-1.7,6.3-1.9,10.1-1.2C319.9,290.1,318.8,290.5,317.8,291.1z M506.7,435.4c0-1.8-0.4-3.6-1.2-5.3
	l-2.8-5.7c-2.9-5.9-10.1-8.4-16-5.5l-8.4,4.1c-5.9,2.9-8.4,10.1-5.5,16l2.8,5.7c0.5,1,1.1,1.9,1.8,2.7c-16-2.8-35.5-11.1-52.1-11.1
	c-17.1,0-36.7,6.6-53,8.1c0.7-0.8,1.4-1.8,1.9-2.8l2.8-5.7c2.9-5.9,0.4-13.2-5.5-16l-8.4-4.1c-5.9-2.9-13.2-0.4-16,5.5l-2.8,5.7
	c-0.7,1.4-1.1,3-1.2,4.5c-7.3-15.4-6.8-42.9-6.8-58.1c0-20.5,5.6-59.9,21.7-65.1c5.3-1.7,11.7,0.3,18.9,3.7c-3.2,0.9-6,3.1-7.6,6.3
	l-2.8,5.7c-2.9,5.9-0.4,13.2,5.5,16l8.4,4.1c5.9,2.9,13.2,0.4,16-5.5l2.8-5.7c1.3-2.7,1.5-5.7,0.8-8.4c8.3,4.2,16.9,7.6,25.3,7.6
	c8.8,0,17.8-3,26.5-6.9c-0.5,2.5-0.3,5.2,0.9,7.7l2.8,5.7c2.9,5.9,10.1,8.4,16,5.5l8.4-4.1c5.9-2.9,8.4-10.1,5.5-16l-2.8-5.7
	c-1.3-2.7-3.6-4.7-6.2-5.8c10.4-5.2,19.4-8.5,25.9-4.8c10.6,6,11.9,49.5,11.9,65.7C514.2,389,514.4,418.9,506.7,435.4z M544.1,422.7
	c0-1.8-0.4-3.6-1.2-5.3l-2.3-4.7c4.2-16.8,4.2-39.3,4.2-52.2c0-16.2-1.4-59.7-11.9-65.7c-1-0.6-2.1-1-3.2-1.2
	c3.8-0.7,7.2-0.4,10.1,1.2c10.6,6,11.9,49.5,11.9,65.7C551.7,376.3,551.8,406.2,544.1,422.7z"/>
<path d="M396,214.2c-12.3,0-22.2,10-22.2,22.2s10,22.2,22.2,22.2s22.2-10,22.2-22.2S408.3,214.2,396,214.2z M401,231.2
	c-2.4,0-4.4-2-4.4-4.4c0-2.4,2-4.4,4.4-4.4c2.4,0,4.4,2,4.4,4.4C405.4,229.2,403.5,231.2,401,231.2z"/>
<path d="M452.7,214.2c-12.3,0-22.2,10-22.2,22.2s10,22.2,22.2,22.2s22.2-10,22.2-22.2S465,214.2,452.7,214.2z M457.2,231.2
	c-2.4,0-4.4-2-4.4-4.4c0-2.4,2-4.4,4.4-4.4s4.4,2,4.4,4.4C461.6,229.2,459.6,231.2,457.2,231.2z"/>
</svg>
