<?xml version="1.0" encoding="utf-8"?>
<!-- Generator: Adobe Illustrator 21.1.0, SVG Export Plug-In . SVG Version: 6.00 Build 0)  -->
<svg version="1.1" id="Layer_1" xmlns="http://www.w3.org/2000/svg" xmlns:xlink="http://www.w3.org/1999/xlink" x="0px" y="0px"
	 viewBox="0 0 792 612" style="enable-background:new 0 0 792 612;" xml:space="preserve">
<style type="text/css">
	.st0{stroke:#FFFFFF;stroke-miterlimit:10;}
</style>
<g>
	<ellipse class="st0" cx="274.6" cy="190.7" rx="21.7" ry="55.5"/>
	<ellipse class="st0" cx="472.8" cy="190.7" rx="21.7" ry="55.5"/>
	<path class="st0" d="M620.1,161.9v25.9h-26.2l5.7-46.2c0-2-0.3-4-0.9-5.8c0.6-3.1,0.9-6.2,0.9-9.3c0-56.4-100.8-102.2-225.2-102.2
		S149.3,70,149.3,126.4c0,3.1,0.3,6.2,0.9,9.3c-0.6,1.8-0.9,3.8-0.9,5.8l4.2,46.2h-26.2v-25.9h-24.2v58.4v13.3h21.7l0.8-22.5
		l30.1,1.3l5.4,59.7c0,5.9,6.5,10.3,14.1,12.9c-3.1,3.4-5,7.9-5,12.8l6.4,46.8c0,2.9,15,5.2,36.7,7c-2.9,3.3-4.7,7.7-4.7,12.4v101
		c0,5,2,9.6,5.2,13c11.5,18.6,41,34.1,80.4,43.2c3.4,5.2,9.2,8.6,15.8,8.6h129c6.6,0,12.4-3.4,15.8-8.6c39.4-9.1,69-24.6,80.4-43.2
		c3.2-3.4,5.2-8,5.2-13v-101c0-4.2-1.4-8.1-3.7-11.2c20.9-1.6,35.1-3.7,35.1-6.6l7-48.4c0-5-2-9.6-5.2-13c5.5-1.6,9.4-4,9.4-7.7
		l8-64.6l30.9-1.3l0.8,22.5h21.7v-13.3v-58.4H620.1z M373.7,351.5c44.4,0,80.3-21.1,80.3-47.1c0-25.2-33.7-45.8-76.2-47
		c52.8,1.3,95,26.8,95,58.1c0,32.1-44.4,58.1-99.1,58.1c-54.7,0-99.1-26-99.1-58.1c0-31.3,42.2-56.8,95-58.1
		c-42.4,1.3-76.2,21.8-76.2,47C293.4,330.5,329.3,351.5,373.7,351.5z M434.4,174.4c0-39.6,17.2-71.7,38.4-71.7
		c21.2,0,38.4,32.1,38.4,71.7s-17.2,71.7-38.4,71.7C451.6,246.1,434.4,214,434.4,174.4z M236.2,174.4c0-39.6,17.2-71.7,38.4-71.7
		s38.4,32.1,38.4,71.7s-17.2,71.7-38.4,71.7S236.2,214,236.2,174.4z M216.7,85.8c-7.4-1.4-12.4-8.7-10.9-16.1
		c1.4-7.4,8.7-12.4,16.1-10.9l109,20.8c7.4,1.4,12.4,8.7,10.9,16.1c-1.4,7.4-8.7,12.4-16.1,10.9L216.7,85.8z M515.8,476.2
		c-5.9-34.3-67.3-61.3-142.1-61.3c-18.2,0-35.7,1.6-51.7,4.5v28.9c0,6.4-5.2,5.2-11.6,5.2c-6.4,0-11.6,1.2-11.6-5.2v-23.4
		c-37.5,10.9-63.4,29.6-67.2,51.3c-0.3-1.8-0.5-3.6-0.5-5.4c0-36.8,63.9-66.7,142.6-66.7s142.6,29.9,142.6,66.7
		C516.3,472.6,516.1,474.4,515.8,476.2z M529.9,85.8l-109,20.8c-7.4,1.4-14.7-3.5-16.1-10.9c-1.4-7.4,3.5-14.7,10.9-16.1l109-20.8
		c7.4-1.4,14.7,3.5,16.1,10.9C542.2,77.2,537.3,84.4,529.9,85.8z"/>
</g>
</svg>
